<?xml version="1.0" encoding="utf-8"?>
<svg version="1.1" id="Layer_1" xmlns="http://www.w3.org/2000/svg" xmlns:xlink="http://www.w3.org/1999/xlink" x="0px" y="0px"
	 width="48px" viewBox="0 0 261 275" enable-background="new 0 0 261.111 310.317"
	 xml:space="preserve">
<path fill="#FFFFFF" d="M138.671,193.531c0.541-2.27,1.981-3.99,4.393-5.33c4.576-2.541,9.123-5.111,13.439-7.92
	c11.822-7.691,21.245-16.699,26.957-27.879c4.449-8.706,5.706-17.799,6.182-27.009c0.244-4.749-0.413-9.48-0.872-14.216
	c-0.56-5.778-1.572-11.51-2.779-17.222c-1.699-8.046-4.096-15.988-6.345-23.953c-1.259-4.462-2.209-8.981-4-13.343
	c-1.303-3.174-2.196-3.564-6.449-3.566c-12.137,0-24.271,0-36.407,0c-0.221,0-0.44,0-0.661,0c-0.22,0-0.441,0-0.662,0
	c-12.135,0-24.271,0-36.405,0c-4.253,0.002-5.146,0.393-6.448,3.566c-1.792,4.361-2.744,8.881-4.001,13.343
	c-2.249,7.965-4.647,15.907-6.347,23.953c-1.207,5.712-2.219,11.443-2.779,17.222c-0.459,4.735-1.117,9.467-0.87,14.216
	c0.476,9.21,1.733,18.304,6.183,27.009c5.709,11.18,15.134,20.188,26.955,27.879c4.317,2.809,8.864,5.379,13.44,7.92
	c2.412,1.34,3.853,3.061,4.391,5.33c0.908,3.83,1.172,7.688,1.343,11.566c0.572,13.037,0.666,26.08,0.455,39.123
	c-0.059,3.816-0.787,7.604-2.119,11.313c-1.91,5.318-6.464,8.418-12.917,9.904H83.171c0,0-2.549-0.16-5.092,2.629
	c-2.547,2.787-1.547,4.848-1.547,4.848c18.312,0,36.621,0,54.934,0c0.221,0,0.442,0,0.664,0c0.094,0,0.189,0,0.286,0
	c0.123,0,0.25,0,0.373,0c18.313,0,36.624,0,54.937,0h0.288c0,0,1-2.061-1.547-4.848c-2.545-2.789-5.095-2.629-5.095-2.629h-29.463
	c-6.451-1.486-11.005-4.586-12.915-9.904c-1.332-3.709-2.061-7.496-2.121-11.313c-0.209-13.043-0.117-26.086,0.455-39.123
	C137.499,201.219,137.765,197.361,138.671,193.531z"/>
<polygon fill="#EFCC17" points="173.628,19.257 185.759,43.838 212.886,47.78 193.257,66.914 197.891,93.93 173.628,81.174 
	149.366,93.93 153.999,66.914 134.37,47.78 161.497,43.838 "/>
</svg>
